<?xml version="1.0" encoding="utf-8"?>
<!-- Generator: Adobe Illustrator 25.4.1, SVG Export Plug-In . SVG Version: 6.00 Build 0)  -->
<svg version="1.1" id="图层_1" xmlns="http://www.w3.org/2000/svg" xmlns:xlink="http://www.w3.org/1999/xlink" x="0px" y="0px"
	 viewBox="0 0 160 160" style="enable-background:new 0 0 160 160;" xml:space="preserve">
<style type="text/css">
	.st0{fill:#3650A2;}
	.st1{fill-rule:evenodd;clip-rule:evenodd;fill:#FFFFFF;}
</style>
<g transform="matrix(0.9, 0, 0, 0.9, 12.799995, 12.799995)">
	<circle class="st0" cx="74.7" cy="74.7" r="88.9"/>
	<path class="st1" d="M74.7,19.1c2.6,0,4.9,1.5,6,3.8l26.7,55l0.6,1.2H93.1l-4.3-8.9H60.5l-4.3,8.9H41.4l0.6-1.2l26.7-55
		C69.8,20.6,72.1,19.1,74.7,19.1z M65.9,59.1h17.5l-8.8-18.1L65.9,59.1z M94.7,98H108c-0.4,17.9-15.3,32.2-33.3,32.2
		c-18.1,0-32.9-14.3-33.3-32.2h13.3c0.3,8.2,5.7,15.1,13.3,17.8V89.1c0-3.7,3-6.7,6.7-6.7s6.7,3,6.7,6.7v26.7
		C88.9,113.2,94.4,106.2,94.7,98z"/>
</g>
</svg>
