<svg width="40" height="40" viewBox="0 0 40 40" fill="none" xmlns="http://www.w3.org/2000/svg">
<rect width="40" height="40" rx="6" fill="#536EF3"/>
<rect width="40" height="40" rx="6" fill="url(#paint0_linear_27824_26698)"/>
<mask id="path-2-outside-1_27824_26698" maskUnits="userSpaceOnUse" x="4.77246" y="6.69531" width="30" height="26" fill="black">
<rect fill="white" x="4.77246" y="6.69531" width="30" height="26"/>
<path fill-rule="evenodd" clip-rule="evenodd" d="M18.7514 7.69531C18.58 7.69531 18.4878 7.78582 18.4288 7.84362L18.4126 7.85955L5.8416 29.19C5.7905 29.2489 5.77246 29.3231 5.77246 29.3904C5.77246 29.4646 5.79347 29.5417 5.8299 29.613L7.10028 31.763L7.21071 31.8711H12.4667C12.638 31.8711 12.7303 31.7806 12.7892 31.7228L12.8054 31.707L14.064 29.577C14.1152 29.518 14.1332 29.4437 14.1332 29.3764C14.1332 29.3023 14.1122 29.2251 14.0758 29.1537L12.9128 27.2003L14.924 23.8298L19.6699 31.7074L19.6835 31.7205L19.6847 31.7219L19.6884 31.7253L19.7 31.7355C19.7094 31.7433 19.7228 31.7539 19.7393 31.7645C19.7676 31.7831 19.8246 31.8152 19.8944 31.8152H32.5775C32.7489 31.8152 32.8411 31.7247 32.9001 31.6669L32.9162 31.6511L34.1589 29.5478C34.1991 29.4821 34.2272 29.4192 34.2272 29.3592C34.2272 29.2992 34.2092 29.2483 34.1749 29.19L21.6039 7.85955L21.5877 7.84362C21.5287 7.78582 21.4365 7.69531 21.2652 7.69531H18.7514ZM30.4159 27.0266L19.4493 8.47251H21.0144L33.1364 28.9669H24.3643L25.1718 27.6169H30.0637C30.2349 27.6169 30.3273 27.5264 30.3861 27.4685L30.3895 27.4654C30.4518 27.4043 30.4732 27.3227 30.4732 27.2493C30.4732 27.175 30.4522 27.0979 30.4159 27.0266ZM24.6925 22.7575L20.003 30.729L15.4262 23.0572L16.1812 21.7627L19.6014 27.546C19.6508 27.6394 19.7405 27.7 19.8293 27.7289C19.9112 27.7557 20.0101 27.7613 20.1004 27.7262C20.1582 27.7173 20.207 27.6878 20.2411 27.6543C20.2735 27.6227 20.3025 27.578 20.3133 27.5247L24.1195 21.0683C24.1706 21.0093 24.1886 20.9351 24.1886 20.8678C24.1886 20.7937 24.1676 20.7165 24.1312 20.6451L19.118 12.2728C19.118 12.2728 19.0395 12.146 18.9848 12.09C18.9302 12.034 18.8635 11.9764 18.75 11.9764C18.6366 11.9764 18.5692 12.0225 18.5164 12.0823C18.4636 12.1421 18.4339 12.182 18.4007 12.2395L7.43843 30.7374L6.62808 29.383L18.7514 8.88646L29.3657 26.8397H27.8003L25.384 22.7648L25.3792 22.7577C25.2101 22.5093 24.8616 22.5092 24.6925 22.7575ZM12.2165 31.1499H8.13734L18.7504 13.2538L19.5057 14.5491L17.1539 18.5543C17.1028 18.6132 17.0848 18.6874 17.0848 18.7547C17.0848 18.8288 17.1058 18.9059 17.1422 18.9773L20.8198 25.186L20.0074 26.5904L16.5764 20.7345L16.56 20.7185C16.501 20.6607 16.4088 20.5702 16.2375 20.5702C16.0662 20.5702 15.9739 20.6607 15.915 20.7185L15.8992 20.734L12.1194 27.0184L10.861 29.2038L10.8578 29.2099C10.8261 29.2721 10.8002 29.3372 10.8002 29.4114C10.8002 29.4856 10.8261 29.5507 10.8578 29.6129L10.868 29.6329L10.8872 29.6517C10.9462 29.7095 11.0385 29.8 11.2098 29.8H13.0242L12.2165 31.1499ZM17.9398 18.7479L19.9523 15.3233L23.2757 20.8751L21.2092 24.3536L17.9398 18.7479ZM32.3262 31.038H20.7072L25.0346 23.7772L25.7898 25.0718L24.5746 27.074L23.2409 29.233V29.5523L23.2851 29.5957C23.344 29.6535 23.4363 29.744 23.6077 29.744H33.081L32.3262 31.038ZM26.8558 26.8397H25.6811L26.2887 25.8476L26.8558 26.8397ZM13.0194 29.0228H11.914L12.4667 28.1332L13.0194 29.0228Z"/>
</mask>
<path fill-rule="evenodd" clip-rule="evenodd" d="M18.7514 7.69531C18.58 7.69531 18.4878 7.78582 18.4288 7.84362L18.4126 7.85955L5.8416 29.19C5.7905 29.2489 5.77246 29.3231 5.77246 29.3904C5.77246 29.4646 5.79347 29.5417 5.8299 29.613L7.10028 31.763L7.21071 31.8711H12.4667C12.638 31.8711 12.7303 31.7806 12.7892 31.7228L12.8054 31.707L14.064 29.577C14.1152 29.518 14.1332 29.4437 14.1332 29.3764C14.1332 29.3023 14.1122 29.2251 14.0758 29.1537L12.9128 27.2003L14.924 23.8298L19.6699 31.7074L19.6835 31.7205L19.6847 31.7219L19.6884 31.7253L19.7 31.7355C19.7094 31.7433 19.7228 31.7539 19.7393 31.7645C19.7676 31.7831 19.8246 31.8152 19.8944 31.8152H32.5775C32.7489 31.8152 32.8411 31.7247 32.9001 31.6669L32.9162 31.6511L34.1589 29.5478C34.1991 29.4821 34.2272 29.4192 34.2272 29.3592C34.2272 29.2992 34.2092 29.2483 34.1749 29.19L21.6039 7.85955L21.5877 7.84362C21.5287 7.78582 21.4365 7.69531 21.2652 7.69531H18.7514ZM30.4159 27.0266L19.4493 8.47251H21.0144L33.1364 28.9669H24.3643L25.1718 27.6169H30.0637C30.2349 27.6169 30.3273 27.5264 30.3861 27.4685L30.3895 27.4654C30.4518 27.4043 30.4732 27.3227 30.4732 27.2493C30.4732 27.175 30.4522 27.0979 30.4159 27.0266ZM24.6925 22.7575L20.003 30.729L15.4262 23.0572L16.1812 21.7627L19.6014 27.546C19.6508 27.6394 19.7405 27.7 19.8293 27.7289C19.9112 27.7557 20.0101 27.7613 20.1004 27.7262C20.1582 27.7173 20.207 27.6878 20.2411 27.6543C20.2735 27.6227 20.3025 27.578 20.3133 27.5247L24.1195 21.0683C24.1706 21.0093 24.1886 20.9351 24.1886 20.8678C24.1886 20.7937 24.1676 20.7165 24.1312 20.6451L19.118 12.2728C19.118 12.2728 19.0395 12.146 18.9848 12.09C18.9302 12.034 18.8635 11.9764 18.75 11.9764C18.6366 11.9764 18.5692 12.0225 18.5164 12.0823C18.4636 12.1421 18.4339 12.182 18.4007 12.2395L7.43843 30.7374L6.62808 29.383L18.7514 8.88646L29.3657 26.8397H27.8003L25.384 22.7648L25.3792 22.7577C25.2101 22.5093 24.8616 22.5092 24.6925 22.7575ZM12.2165 31.1499H8.13734L18.7504 13.2538L19.5057 14.5491L17.1539 18.5543C17.1028 18.6132 17.0848 18.6874 17.0848 18.7547C17.0848 18.8288 17.1058 18.9059 17.1422 18.9773L20.8198 25.186L20.0074 26.5904L16.5764 20.7345L16.56 20.7185C16.501 20.6607 16.4088 20.5702 16.2375 20.5702C16.0662 20.5702 15.9739 20.6607 15.915 20.7185L15.8992 20.734L12.1194 27.0184L10.861 29.2038L10.8578 29.2099C10.8261 29.2721 10.8002 29.3372 10.8002 29.4114C10.8002 29.4856 10.8261 29.5507 10.8578 29.6129L10.868 29.6329L10.8872 29.6517C10.9462 29.7095 11.0385 29.8 11.2098 29.8H13.0242L12.2165 31.1499ZM17.9398 18.7479L19.9523 15.3233L23.2757 20.8751L21.2092 24.3536L17.9398 18.7479ZM32.3262 31.038H20.7072L25.0346 23.7772L25.7898 25.0718L24.5746 27.074L23.2409 29.233V29.5523L23.2851 29.5957C23.344 29.6535 23.4363 29.744 23.6077 29.744H33.081L32.3262 31.038ZM26.8558 26.8397H25.6811L26.2887 25.8476L26.8558 26.8397ZM13.0194 29.0228H11.914L12.4667 28.1332L13.0194 29.0228Z" fill="white"/>
<path fill-rule="evenodd" clip-rule="evenodd" d="M18.7514 7.69531C18.58 7.69531 18.4878 7.78582 18.4288 7.84362L18.4126 7.85955L5.8416 29.19C5.7905 29.2489 5.77246 29.3231 5.77246 29.3904C5.77246 29.4646 5.79347 29.5417 5.8299 29.613L7.10028 31.763L7.21071 31.8711H12.4667C12.638 31.8711 12.7303 31.7806 12.7892 31.7228L12.8054 31.707L14.064 29.577C14.1152 29.518 14.1332 29.4437 14.1332 29.3764C14.1332 29.3023 14.1122 29.2251 14.0758 29.1537L12.9128 27.2003L14.924 23.8298L19.6699 31.7074L19.6835 31.7205L19.6847 31.7219L19.6884 31.7253L19.7 31.7355C19.7094 31.7433 19.7228 31.7539 19.7393 31.7645C19.7676 31.7831 19.8246 31.8152 19.8944 31.8152H32.5775C32.7489 31.8152 32.8411 31.7247 32.9001 31.6669L32.9162 31.6511L34.1589 29.5478C34.1991 29.4821 34.2272 29.4192 34.2272 29.3592C34.2272 29.2992 34.2092 29.2483 34.1749 29.19L21.6039 7.85955L21.5877 7.84362C21.5287 7.78582 21.4365 7.69531 21.2652 7.69531H18.7514ZM30.4159 27.0266L19.4493 8.47251H21.0144L33.1364 28.9669H24.3643L25.1718 27.6169H30.0637C30.2349 27.6169 30.3273 27.5264 30.3861 27.4685L30.3895 27.4654C30.4518 27.4043 30.4732 27.3227 30.4732 27.2493C30.4732 27.175 30.4522 27.0979 30.4159 27.0266ZM24.6925 22.7575L20.003 30.729L15.4262 23.0572L16.1812 21.7627L19.6014 27.546C19.6508 27.6394 19.7405 27.7 19.8293 27.7289C19.9112 27.7557 20.0101 27.7613 20.1004 27.7262C20.1582 27.7173 20.207 27.6878 20.2411 27.6543C20.2735 27.6227 20.3025 27.578 20.3133 27.5247L24.1195 21.0683C24.1706 21.0093 24.1886 20.9351 24.1886 20.8678C24.1886 20.7937 24.1676 20.7165 24.1312 20.6451L19.118 12.2728C19.118 12.2728 19.0395 12.146 18.9848 12.09C18.9302 12.034 18.8635 11.9764 18.75 11.9764C18.6366 11.9764 18.5692 12.0225 18.5164 12.0823C18.4636 12.1421 18.4339 12.182 18.4007 12.2395L7.43843 30.7374L6.62808 29.383L18.7514 8.88646L29.3657 26.8397H27.8003L25.384 22.7648L25.3792 22.7577C25.2101 22.5093 24.8616 22.5092 24.6925 22.7575ZM12.2165 31.1499H8.13734L18.7504 13.2538L19.5057 14.5491L17.1539 18.5543C17.1028 18.6132 17.0848 18.6874 17.0848 18.7547C17.0848 18.8288 17.1058 18.9059 17.1422 18.9773L20.8198 25.186L20.0074 26.5904L16.5764 20.7345L16.56 20.7185C16.501 20.6607 16.4088 20.5702 16.2375 20.5702C16.0662 20.5702 15.9739 20.6607 15.915 20.7185L15.8992 20.734L12.1194 27.0184L10.861 29.2038L10.8578 29.2099C10.8261 29.2721 10.8002 29.3372 10.8002 29.4114C10.8002 29.4856 10.8261 29.5507 10.8578 29.6129L10.868 29.6329L10.8872 29.6517C10.9462 29.7095 11.0385 29.8 11.2098 29.8H13.0242L12.2165 31.1499ZM17.9398 18.7479L19.9523 15.3233L23.2757 20.8751L21.2092 24.3536L17.9398 18.7479ZM32.3262 31.038H20.7072L25.0346 23.7772L25.7898 25.0718L24.5746 27.074L23.2409 29.233V29.5523L23.2851 29.5957C23.344 29.6535 23.4363 29.744 23.6077 29.744H33.081L32.3262 31.038ZM26.8558 26.8397H25.6811L26.2887 25.8476L26.8558 26.8397ZM13.0194 29.0228H11.914L12.4667 28.1332L13.0194 29.0228Z" stroke="white" stroke-width="0.2" mask="url(#path-2-outside-1_27824_26698)"/>
<defs>
<linearGradient id="paint0_linear_27824_26698" x1="35.8242" y1="38.6813" x2="5.49451" y2="2.1978" gradientUnits="userSpaceOnUse">
<stop offset="0.213542" stop-color="#536EF3"/>
<stop offset="0.994792" stop-color="#5D77F7"/>
</linearGradient>
</defs>
</svg>
