<svg id="图层_1" data-name="图层 1" xmlns="http://www.w3.org/2000/svg" viewBox="0 0 40 40"><defs><style>.cls-1{fill:#a36536;}.cls-2{fill:#f9a908;}.cls-3{fill:#f9b406;}.cls-4{fill:#ffa733;}.cls-5{fill:#f4a03b;}.cls-6{fill:#ef8f26;}.cls-7{fill:#8e6036;}.cls-8{fill:#dd9145;}</style></defs><path class="cls-1" d="M22.95,16.87h1.39a0,0,0,0,1,0,0v4.43a3,3,0,0,1-3,3H19.95a0,0,0,0,1,0,0V19.87A3,3,0,0,1,22.95,16.87Z" transform="translate(42.72 -1.56) rotate(90)"/><path class="cls-2" d="M21.46,18.49h1.39a0,0,0,0,1,0,0v4.43a3,3,0,0,1-3,3H18.46a0,0,0,0,1,0,0V21.49A3,3,0,0,1,21.46,18.49Z" transform="translate(42.86 1.55) rotate(90)"/><path class="cls-3" d="M3.07,22a17.83,17.83,0,0,0,17.5,17.69V38.45a6.9,6.9,0,0,1-6.67-6.62,6.67,6.67,0,0,1,4-6.1,7,7,0,0,1,2-.56.56.56,0,0,0,.5-.56V4.35A17.66,17.66,0,0,0,3.07,22Z"/><path class="cls-4" d="M20.77,39.6A16.78,16.78,0,0,1,13,38.32,17.64,17.64,0,0,1,6.6,33.6a17,17,0,0,1-2.28-3.36,17.19,17.19,0,0,1-1.47-3.8,18.4,18.4,0,0,1-.2-8.12,18.84,18.84,0,0,1,1.27-3.89A18,18,0,0,1,6,10.94,18.25,18.25,0,0,1,8.88,8c.26-.22.54-.42.81-.62s.55-.39.83-.58a18.27,18.27,0,0,1,1.78-1,17.76,17.76,0,0,1,3.8-1.36,17.27,17.27,0,0,1,4-.43A16.46,16.46,0,0,1,27.69,5.9,18.12,18.12,0,0,0,13,7.12,17.3,17.3,0,0,0,5.6,15.19a16.6,16.6,0,0,0-1.12,3.5,17.24,17.24,0,0,0,3.24,14,17.86,17.86,0,0,0,2.59,2.7,16.6,16.6,0,0,0,3.12,2.11A18.65,18.65,0,0,0,20.77,39.6Z"/><polygon class="cls-5" points="37.36 16.2 37.56 16.85 37.54 16.86 37.36 16.2"/><polygon class="cls-5" points="37.9 18.19 38.13 19.55 38 19.57 37.83 18.2 37.9 18.19"/><path class="cls-5" d="M38.26,20.93c0,.23,0,.46,0,.69v.69H38l0-.68v-.69Z"/><polygon class="cls-5" points="38.18 23.7 37.98 25.08 37.65 25.01 37.9 23.66 38.18 23.7"/><polygon class="cls-5" points="37.67 26.43 37.26 27.77 36.85 27.61 37.3 26.33 37.67 26.43"/><polygon class="cls-5" points="36.74 29.06 36.12 30.32 35.65 30.05 36.3 28.85 36.74 29.06"/><polygon class="cls-5" points="35.4 31.52 34.59 32.66 34.09 32.26 34.91 31.18 35.4 31.52"/><polygon class="cls-5" points="33.69 33.74 32.71 34.74 32.2 34.19 33.18 33.26 33.69 33.74"/><polygon class="cls-5" points="31.65 35.67 30.52 36.52 30.05 35.8 31.16 35.04 31.65 35.67"/><polygon class="cls-5" points="29.33 37.27 28.08 37.93 27.68 37.06 28.89 36.48 29.33 37.27"/><polygon class="cls-5" points="26.78 38.49 25.44 38.95 25.15 37.92 26.43 37.54 26.78 38.49"/><polygon class="cls-5" points="24.06 39.29 22.66 39.53 22.53 38.37 23.85 38.2 24.06 39.29"/><polygon class="cls-5" points="21.24 39.66 20.53 39.69 20.54 38.44 21.2 38.44 21.24 39.66"/><path class="cls-3" d="M26.18,4.87a6.12,6.12,0,0,0-8,1.69v.77A5.8,5.8,0,0,0,24,13.11H35.85a1.23,1.23,0,0,0,.62-2.3Z"/><path class="cls-1" d="M17.73.24h2a2,2,0,0,1,2,2V7.08a0,0,0,0,1,0,0h-2a2,2,0,0,1-2-2V.24a0,0,0,0,1,0,0Z" transform="translate(39.49 7.32) rotate(-180)"/><path class="cls-3" d="M19.83.24h1.39a2,2,0,0,1,2,2V7.08a0,0,0,0,1,0,0H21.83a2,2,0,0,1-2-2V.24A0,0,0,0,1,19.83.24Z" transform="translate(43.04 7.32) rotate(180)"/><path class="cls-6" d="M20,21.56,8.25,7.86c.38-.32.76-.63,1.16-.92s.81-.56,1.23-.82L20.1,21.49A.06.06,0,0,1,20,21.56Z"/><path class="cls-6" d="M19.48,21.46,4.79,11.79c.27-.41.56-.81.86-1.2s.63-.77,1-1.13l13,11.85C19.68,21.39,19.58,21.53,19.48,21.46Z"/><path class="cls-6" d="M19.57,21.85l-17-5.32c.15-.48.31-.94.5-1.4s.38-.91.6-1.35l16,7.92C19.71,21.75,19.66,21.88,19.57,21.85Z"/><path class="cls-6" d="M19.88,22.13,1.7,21.69c0-.49,0-1,.09-1.48s.12-1,.21-1.46L19.89,22A.05.05,0,0,1,19.88,22.13Z"/><path class="cls-3" d="M20.41,18.22V22.9a.37.37,0,0,1-.35.38,7.49,7.49,0,0,0-3.47,1.22,5.56,5.56,0,0,1-.38-1.92A4.36,4.36,0,0,1,20.41,18.22Z"/><path class="cls-7" d="M23.79,9a1.19,1.19,0,0,1,2.37,0"/><path class="cls-8" d="M26.82,5.22a2.68,2.68,0,0,0-2.22.33c-1.11.69-.88,2.16-.09,1.92a1.89,1.89,0,0,1,2.32,1.19c1,3.22,6.72.83,9.49,2.07Z"/></svg>